<svg width="16" height="16" viewBox="0 0 16 16" fill="none" xmlns="http://www.w3.org/2000/svg">
<path fill-rule="evenodd" clip-rule="evenodd" d="M10.7068 3.29279C10.8943 3.48031 10.9996 3.73462 10.9996 3.99979C10.9996 4.26495 10.8943 4.51926 10.7068 4.70679L7.41379 7.99979L10.7068 11.2928C10.8889 11.4814 10.9897 11.734 10.9875 11.9962C10.9852 12.2584 10.88 12.5092 10.6946 12.6946C10.5092 12.88 10.2584 12.9852 9.99619 12.9875C9.73399 12.9897 9.48139 12.8889 9.29279 12.7068L5.29279 8.70679C5.10532 8.51926 5 8.26495 5 7.99979C5 7.73462 5.10532 7.48031 5.29279 7.29279L9.29279 3.29279C9.48031 3.10532 9.73462 3 9.99979 3C10.265 3 10.5193 3.10532 10.7068 3.29279Z" fill="white"/>
</svg>
