<svg width="16" height="16" viewBox="0 0 16 16" fill="none" xmlns="http://www.w3.org/2000/svg">
<path fill-rule="evenodd" clip-rule="evenodd" d="M4.03982 3.2399C5.09008 2.18964 6.51453 1.59961 7.99982 1.59961C9.48511 1.59961 10.9096 2.18964 11.9598 3.2399C13.0101 4.29015 13.6001 5.71461 13.6001 7.1999C13.6001 8.68518 13.0101 10.1096 11.9598 11.1599L7.99982 15.1199L4.03982 11.1599C3.51975 10.6399 3.10721 10.0225 2.82574 9.34305C2.54428 8.66359 2.39941 7.93535 2.39941 7.1999C2.39941 6.46444 2.54428 5.7362 2.82574 5.05674C3.10721 4.37728 3.51975 3.75991 4.03982 3.2399ZM7.99982 8.79989C8.42416 8.79989 8.83113 8.63132 9.13119 8.33127C9.43125 8.03121 9.59982 7.62424 9.59982 7.1999C9.59982 6.77555 9.43125 6.36858 9.13119 6.06852C8.83113 5.76847 8.42416 5.5999 7.99982 5.5999C7.57547 5.5999 7.16851 5.76847 6.86845 6.06852C6.56839 6.36858 6.39982 6.77555 6.39982 7.1999C6.39982 7.62424 6.56839 8.03121 6.86845 8.33127C7.16851 8.63132 7.57547 8.79989 7.99982 8.79989Z" fill="#010101"/>
</svg>
