<svg width="16" height="16" viewBox="0 0 16 16" fill="none" xmlns="http://www.w3.org/2000/svg">
<path fill-rule="evenodd" clip-rule="evenodd" d="M5.6 1.59961C5.17565 1.59961 4.76869 1.76818 4.46863 2.06824C4.16857 2.3683 4 2.77526 4 3.19961V12.7996C4 13.224 4.16857 13.6309 4.46863 13.931C4.76869 14.231 5.17565 14.3996 5.6 14.3996H10.4C10.8243 14.3996 11.2313 14.231 11.5314 13.931C11.8314 13.6309 12 13.224 12 12.7996V3.19961C12 2.77526 11.8314 2.3683 11.5314 2.06824C11.2313 1.76818 10.8243 1.59961 10.4 1.59961H5.6ZM8 12.7996C8.21217 12.7996 8.41566 12.7153 8.56569 12.5653C8.71571 12.4153 8.8 12.2118 8.8 11.9996C8.8 11.7874 8.71571 11.584 8.56569 11.4339C8.41566 11.2839 8.21217 11.1996 8 11.1996C7.78783 11.1996 7.58434 11.2839 7.43431 11.4339C7.28429 11.584 7.2 11.7874 7.2 11.9996C7.2 12.2118 7.28429 12.4153 7.43431 12.5653C7.58434 12.7153 7.78783 12.7996 8 12.7996Z" fill="#010101"/>
</svg>
